<mxfile host="app.diagrams.net" modified="2024-05-04T08:04:23.918Z" agent="Mozilla/5.0 (Windows NT 10.0; Win64; x64) AppleWebKit/537.36 (KHTML, like Gecko) Chrome/124.0.0.0 Safari/537.36" etag="tPVNiENpKJBguylCHbOW" version="24.3.1" type="device">
  <diagram id="-js7f0S7Zl7tN2MlfKmN" name="Page-1">
    <mxGraphModel dx="2074" dy="2362" grid="1" gridSize="10" guides="1" tooltips="1" connect="1" arrows="1" fold="1" page="1" pageScale="1" pageWidth="827" pageHeight="1169" math="0" shadow="0">
      <root>
        <mxCell id="0" />
        <mxCell id="1" parent="0" />
        <mxCell id="qXtcUMs4ax3A3u2KbZYl-3" value="PC" style="shape=cube;whiteSpace=wrap;html=1;boundedLbl=1;backgroundOutline=1;darkOpacity=0.05;darkOpacity2=0.1;" parent="1" vertex="1">
          <mxGeometry x="180" y="-470" width="120" height="80" as="geometry" />
        </mxCell>
        <mxCell id="qXtcUMs4ax3A3u2KbZYl-4" value="Server" style="shape=cube;whiteSpace=wrap;html=1;boundedLbl=1;backgroundOutline=1;darkOpacity=0.05;darkOpacity2=0.1;" parent="1" vertex="1">
          <mxGeometry x="470" y="-450" width="120" height="80" as="geometry" />
        </mxCell>
        <mxCell id="qXtcUMs4ax3A3u2KbZYl-8" value="EZElectronics backend app" style="shape=note;whiteSpace=wrap;html=1;backgroundOutline=1;darkOpacity=0.05;" parent="1" vertex="1">
          <mxGeometry x="480" y="-650" width="80" height="100" as="geometry" />
        </mxCell>
        <mxCell id="qXtcUMs4ax3A3u2KbZYl-9" value="EZElectronics frontend app" style="shape=note;whiteSpace=wrap;html=1;backgroundOutline=1;darkOpacity=0.05;" parent="1" vertex="1">
          <mxGeometry x="190" y="-670" width="80" height="100" as="geometry" />
        </mxCell>
        <mxCell id="qXtcUMs4ax3A3u2KbZYl-16" value="deploy" style="endArrow=open;endSize=12;dashed=1;html=1;rounded=0;entryX=0;entryY=0;entryDx=50;entryDy=0;entryPerimeter=0;exitX=0.5;exitY=1;exitDx=0;exitDy=0;exitPerimeter=0;" parent="1" source="qXtcUMs4ax3A3u2KbZYl-9" target="qXtcUMs4ax3A3u2KbZYl-3" edge="1">
          <mxGeometry width="160" relative="1" as="geometry">
            <mxPoint x="210" y="-540" as="sourcePoint" />
            <mxPoint x="370" y="-540" as="targetPoint" />
          </mxGeometry>
        </mxCell>
        <mxCell id="qXtcUMs4ax3A3u2KbZYl-17" value="deploy" style="endArrow=open;endSize=12;dashed=1;html=1;rounded=0;entryX=0;entryY=0;entryDx=50;entryDy=0;entryPerimeter=0;exitX=0.5;exitY=1;exitDx=0;exitDy=0;exitPerimeter=0;" parent="1" edge="1">
          <mxGeometry width="160" relative="1" as="geometry">
            <mxPoint x="519.5" y="-550" as="sourcePoint" />
            <mxPoint x="519.5" y="-450" as="targetPoint" />
          </mxGeometry>
        </mxCell>
        <mxCell id="qXtcUMs4ax3A3u2KbZYl-21" value="" style="endArrow=none;html=1;rounded=0;entryX=0;entryY=0;entryDx=0;entryDy=30;entryPerimeter=0;exitX=0;exitY=0;exitDx=120;exitDy=50;exitPerimeter=0;" parent="1" source="qXtcUMs4ax3A3u2KbZYl-3" target="qXtcUMs4ax3A3u2KbZYl-4" edge="1">
          <mxGeometry relative="1" as="geometry">
            <mxPoint x="300" y="-410.5" as="sourcePoint" />
            <mxPoint x="460" y="-410.5" as="targetPoint" />
          </mxGeometry>
        </mxCell>
        <mxCell id="qXtcUMs4ax3A3u2KbZYl-23" value="1" style="resizable=0;html=1;whiteSpace=wrap;align=right;verticalAlign=bottom;" parent="qXtcUMs4ax3A3u2KbZYl-21" connectable="0" vertex="1">
          <mxGeometry x="1" relative="1" as="geometry" />
        </mxCell>
        <mxCell id="bl66r9SAaqa9bO1rfxJu-15" value="internet&lt;div&gt;&lt;br&gt;&lt;/div&gt;" style="edgeLabel;html=1;align=center;verticalAlign=middle;resizable=0;points=[];" vertex="1" connectable="0" parent="qXtcUMs4ax3A3u2KbZYl-21">
          <mxGeometry x="0.0235" y="-1" relative="1" as="geometry">
            <mxPoint as="offset" />
          </mxGeometry>
        </mxCell>
        <mxCell id="bl66r9SAaqa9bO1rfxJu-1" value="Delivery company server" style="shape=cube;whiteSpace=wrap;html=1;boundedLbl=1;backgroundOutline=1;darkOpacity=0.05;darkOpacity2=0.1;" vertex="1" parent="1">
          <mxGeometry x="324" y="-250" width="120" height="80" as="geometry" />
        </mxCell>
        <mxCell id="bl66r9SAaqa9bO1rfxJu-2" value="&lt;div&gt;Bank server&lt;/div&gt;" style="shape=cube;whiteSpace=wrap;html=1;boundedLbl=1;backgroundOutline=1;darkOpacity=0.05;darkOpacity2=0.1;" vertex="1" parent="1">
          <mxGeometry x="600" y="-250" width="120" height="80" as="geometry" />
        </mxCell>
        <mxCell id="bl66r9SAaqa9bO1rfxJu-4" value="" style="endArrow=none;html=1;rounded=0;" edge="1" parent="1" source="bl66r9SAaqa9bO1rfxJu-1" target="qXtcUMs4ax3A3u2KbZYl-4">
          <mxGeometry relative="1" as="geometry">
            <mxPoint x="310" y="-410" as="sourcePoint" />
            <mxPoint x="480" y="-410" as="targetPoint" />
          </mxGeometry>
        </mxCell>
        <mxCell id="bl66r9SAaqa9bO1rfxJu-5" value="*" style="resizable=0;html=1;whiteSpace=wrap;align=left;verticalAlign=bottom;" connectable="0" vertex="1" parent="bl66r9SAaqa9bO1rfxJu-4">
          <mxGeometry x="-1" relative="1" as="geometry" />
        </mxCell>
        <mxCell id="bl66r9SAaqa9bO1rfxJu-6" value="1" style="resizable=0;html=1;whiteSpace=wrap;align=right;verticalAlign=bottom;" connectable="0" vertex="1" parent="bl66r9SAaqa9bO1rfxJu-4">
          <mxGeometry x="1" relative="1" as="geometry">
            <mxPoint x="9" y="20" as="offset" />
          </mxGeometry>
        </mxCell>
        <mxCell id="bl66r9SAaqa9bO1rfxJu-7" value="internet" style="edgeLabel;html=1;align=center;verticalAlign=middle;resizable=0;points=[];" vertex="1" connectable="0" parent="bl66r9SAaqa9bO1rfxJu-4">
          <mxGeometry x="-0.1225" y="-8" relative="1" as="geometry">
            <mxPoint x="-8" y="-2" as="offset" />
          </mxGeometry>
        </mxCell>
        <mxCell id="bl66r9SAaqa9bO1rfxJu-8" value="" style="endArrow=none;html=1;rounded=0;" edge="1" parent="1" source="bl66r9SAaqa9bO1rfxJu-2" target="qXtcUMs4ax3A3u2KbZYl-4">
          <mxGeometry relative="1" as="geometry">
            <mxPoint x="423" y="-240" as="sourcePoint" />
            <mxPoint x="511" y="-360" as="targetPoint" />
          </mxGeometry>
        </mxCell>
        <mxCell id="bl66r9SAaqa9bO1rfxJu-9" value="*" style="resizable=0;html=1;whiteSpace=wrap;align=left;verticalAlign=bottom;" connectable="0" vertex="1" parent="bl66r9SAaqa9bO1rfxJu-8">
          <mxGeometry x="-1" relative="1" as="geometry" />
        </mxCell>
        <mxCell id="bl66r9SAaqa9bO1rfxJu-10" value="1" style="resizable=0;html=1;whiteSpace=wrap;align=right;verticalAlign=bottom;" connectable="0" vertex="1" parent="bl66r9SAaqa9bO1rfxJu-8">
          <mxGeometry x="1" relative="1" as="geometry">
            <mxPoint x="4" y="20" as="offset" />
          </mxGeometry>
        </mxCell>
        <mxCell id="bl66r9SAaqa9bO1rfxJu-11" value="internet" style="edgeLabel;html=1;align=center;verticalAlign=middle;resizable=0;points=[];" vertex="1" connectable="0" parent="bl66r9SAaqa9bO1rfxJu-8">
          <mxGeometry x="-0.1225" y="-8" relative="1" as="geometry">
            <mxPoint x="-8" y="-2" as="offset" />
          </mxGeometry>
        </mxCell>
      </root>
    </mxGraphModel>
  </diagram>
</mxfile>
